<svg width="980" height="600" viewBox="0 0 980 600" xmlns="http://www.w3.org/2000/svg" font-family="Segoe UI, Arial, sans-serif" role="img">
  <title>The True Trip Planner architecture diagram</title>
  <desc>Four specialist agents run in parallel, feed into an Aggregator with a 4-dimension scoring engine, which either routes to a human review checkpoint on budget overrun or straight to finalize, producing the final itinerary.</desc>
  <defs>
    <marker id="arrow" markerWidth="10" markerHeight="10" refX="8" refY="3" orient="auto" markerUnits="strokeWidth">
      <path d="M0,0 L0,6 L9,3 z" fill="#556" />
    </marker>
  </defs>

  <rect width="980" height="600" fill="#0f1116" />

  <text x="490" y="35" text-anchor="middle" fill="#f2f2f2" font-size="22" font-weight="600">The True Trip Planner — Multi-Agent Architecture</text>
  <text x="490" y="58" text-anchor="middle" fill="#9aa0ab" font-size="13">LangGraph · Parallel + Aggregator orchestration pattern</text>

  <!-- START -->
  <circle cx="80" cy="330" r="34" fill="#1c2230" stroke="#3d4a63" stroke-width="2"/>
  <text x="80" y="335" text-anchor="middle" fill="#e8eaed" font-size="14" font-weight="600">START</text>

  <!-- 4 parallel agents -->
  <g font-size="14">
    <rect x="200" y="90"  width="220" height="70" rx="10" fill="#16324f" stroke="#2f6690" stroke-width="1.5"/>
    <text x="310" y="118" text-anchor="middle" fill="#eaf2fa" font-weight="600">Research Agent</text>
    <text x="310" y="138" text-anchor="middle" fill="#9fc4e0" font-size="11">mainstream picks (Tavily)</text>

    <rect x="200" y="180" width="220" height="70" rx="10" fill="#16324f" stroke="#2f6690" stroke-width="1.5"/>
    <text x="310" y="208" text-anchor="middle" fill="#eaf2fa" font-weight="600">Local-Insight Agent</text>
    <text x="310" y="228" text-anchor="middle" fill="#9fc4e0" font-size="11">Reddit/Quora hidden gems + safety</text>

    <rect x="200" y="380" width="220" height="70" rx="10" fill="#16324f" stroke="#2f6690" stroke-width="1.5"/>
    <text x="310" y="408" text-anchor="middle" fill="#eaf2fa" font-weight="600">Budget Agent</text>
    <text x="310" y="428" text-anchor="middle" fill="#9fc4e0" font-size="11">deterministic category split</text>

    <rect x="200" y="470" width="220" height="70" rx="10" fill="#16324f" stroke="#2f6690" stroke-width="1.5"/>
    <text x="310" y="498" text-anchor="middle" fill="#eaf2fa" font-weight="600">Flight-Estimate Agent</text>
    <text x="310" y="518" text-anchor="middle" fill="#9fc4e0" font-size="11">price range (Tavily)</text>
  </g>

  <!-- START -> agents -->
  <path d="M114,318 C160,270 160,160 196,128" fill="none" stroke="#556" stroke-width="1.5" marker-end="url(#arrow)"/>
  <path d="M114,325 C150,290 160,240 196,218" fill="none" stroke="#556" stroke-width="1.5" marker-end="url(#arrow)"/>
  <path d="M114,335 C150,370 160,400 196,418" fill="none" stroke="#556" stroke-width="1.5" marker-end="url(#arrow)"/>
  <path d="M114,342 C160,390 160,470 196,505" fill="none" stroke="#556" stroke-width="1.5" marker-end="url(#arrow)"/>

  <!-- Aggregator -->
  <rect x="470" y="270" width="230" height="100" rx="12" fill="#3a2a12" stroke="#a8763a" stroke-width="1.5"/>
  <text x="585" y="300" text-anchor="middle" fill="#f5e6cf" font-weight="700" font-size="15">Aggregator Agent</text>
  <text x="585" y="322" text-anchor="middle" fill="#d8bd93" font-size="11">4-dimension scoring engine:</text>
  <text x="585" y="340" text-anchor="middle" fill="#d8bd93" font-size="11">budget-fit · authenticity ·</text>
  <text x="585" y="356" text-anchor="middle" fill="#d8bd93" font-size="11">interest-fit · logistics feasibility</text>

  <!-- agents -> aggregator (fan-in) -->
  <path d="M420,125 C450,150 450,250 466,290" fill="none" stroke="#556" stroke-width="1.5" marker-end="url(#arrow)"/>
  <path d="M420,215 C450,230 450,260 466,300" fill="none" stroke="#556" stroke-width="1.5" marker-end="url(#arrow)"/>
  <path d="M420,415 C450,400 450,370 466,340" fill="none" stroke="#556" stroke-width="1.5" marker-end="url(#arrow)"/>
  <path d="M420,505 C450,470 450,400 466,350" fill="none" stroke="#556" stroke-width="1.5" marker-end="url(#arrow)"/>

  <!-- Decision diamond -->
  <polygon points="825,320 900,360 825,400 750,360" fill="#3a1414" stroke="#a84a4a" stroke-width="1.5"/>
  <text x="825" y="356" text-anchor="middle" fill="#f2caca" font-size="11" font-weight="600">over budget</text>
  <text x="825" y="370" text-anchor="middle" fill="#f2caca" font-size="11" font-weight="600">by &gt;15%?</text>

  <!-- aggregator -> diamond (enters at top vertex) -->
  <path d="M700,320 C750,318 795,318 822,320" fill="none" stroke="#556" stroke-width="1.5" marker-end="url(#arrow)"/>

  <!-- diamond -> Human Review, exits bottom vertex ("yes") -->
  <path d="M825,400 C830,415 840,428 848,438" fill="none" stroke="#556" stroke-width="1.5" marker-end="url(#arrow)"/>
  <text x="838" y="420" fill="#e2a9a9" font-size="12" font-weight="600">yes</text>

  <!-- diamond -> Finalize, exits left vertex ("no") -->
  <path d="M750,360 C700,400 690,450 674,473" fill="none" stroke="#556" stroke-width="1.5" marker-end="url(#arrow)"/>
  <text x="695" y="415" fill="#a9c9a9" font-size="12" font-weight="600">no</text>

  <!-- Human review -->
  <rect x="760" y="440" width="180" height="80" rx="10" fill="#3a1414" stroke="#a84a4a" stroke-width="1.5"/>
  <text x="850" y="468" text-anchor="middle" fill="#f2caca" font-weight="600" font-size="13">Human Review</text>
  <text x="850" y="486" text-anchor="middle" fill="#e2a9a9" font-size="11">(LangGraph interrupt)</text>
  <text x="850" y="502" text-anchor="middle" fill="#e2a9a9" font-size="10">cut / raise budget / proceed</text>

  <!-- Human Review -> Finalize -->
  <path d="M790,470 C740,475 700,475 674,475" fill="none" stroke="#556" stroke-width="1.5" marker-end="url(#arrow)"/>

  <!-- Finalize -->
  <rect x="470" y="440" width="200" height="70" rx="10" fill="#173b23" stroke="#3f9457" stroke-width="1.5"/>
  <text x="570" y="470" text-anchor="middle" fill="#dff5e6" font-weight="600" font-size="14">Finalize</text>
  <text x="570" y="488" text-anchor="middle" fill="#a9d9b8" font-size="11">apply trim if needed</text>

  <!-- Final itinerary -->
  <rect x="470" y="530" width="200" height="55" rx="10" fill="#1c2230" stroke="#3d4a63" stroke-width="1.5"/>
  <text x="570" y="563" text-anchor="middle" fill="#e8eaed" font-weight="600" font-size="13">Final Itinerary</text>
  <path d="M570,510 L570,526" fill="none" stroke="#556" stroke-width="1.5" marker-end="url(#arrow)"/>
</svg>
